<svg id="04ce2ac1-4656-4b44-8607-f98be3603992" data-name="Capa 1" xmlns="http://www.w3.org/2000/svg" viewBox="0 0 508 510.04">
  <title>ICONES_GIS_Mapes_02</title>
  <g>
    <path d="M205.85,303c-13.79-1.22-24.37-7-30.26-19.12a39.55,39.55,0,0,1-4-16.06c-.41-24.85-.28-49.72-.15-74.58.12-23.41,18.18-41.49,41.6-41.61q40.74-.21,81.48,0c23.55.09,41.65,17.76,41.91,41.29.29,25.14.24,50.3,0,75.44-.16,17.37-12.38,31.26-29.64,33.81-4.25.63-5.25,2.51-5.58,6.29-2.75,31.44-5.67,62.87-8.53,94.31-.82,9-1.31,18-2.5,27-1.84,13.83-10.5,22.86-24.28,24.52a99.37,99.37,0,0,1-23.64,0c-15.3-1.86-24-12.68-25.25-28.49-1.93-24.6-4.43-49.15-6.65-73.72-1.27-14-2.45-28-3.7-42C206.5,307.85,206.16,305.6,205.85,303ZM254,248.23c11.64,0,23.29,0,34.93,0,4.89,0,6.73-1.87,6.74-6.79q0-21.13,0-42.26c0-4.72-1.9-7.09-6.43-6.51-7.67,1-12.44-1.5-14.62-9.11-1-3.55-3.75-5-7.63-4.9-8.48.21-17,.24-25.44,0-4.22-.13-7.14,1.33-8.29,5.26-2.1,7.22-6.52,9.74-14,8.78-5.13-.66-6.89,1.59-6.91,6.88q-.05,20.7,0,41.4c0,5.55,1.66,7.26,7.13,7.27C231,248.26,242.46,248.23,254,248.23Z"/>
    <path d="M254,137.3c-22.56-.08-41.23-18.76-41.18-41.2S231.77,54.86,254.15,55a41.57,41.57,0,0,1,41,41.43C295,118.65,276.17,137.37,254,137.3Z"/>
    <path d="M253.36,233.88c-9.31-.52-16.9-8.74-16.33-17.69.6-9.36,8.82-16.87,17.78-16.22,9.14.66,16.55,8.66,16.15,17.45C270.53,226.66,262.28,234.38,253.36,233.88Z"/>
  </g>
</svg>
