<svg id="ada4463d-6993-4ec8-8903-84e19d9f4fe7" data-name="Capa 1" xmlns="http://www.w3.org/2000/svg" viewBox="0 0 508 510.04">
  <title>ICONES_GIS_Mapes_02</title>
  <g>
    <path d="M100.8,308.1c-13.33-1.18-23.56-6.74-29.25-18.48a38.23,38.23,0,0,1-3.84-15.53c-.4-24-.27-48.06-.15-72.09.12-22.63,17.57-40.1,40.21-40.22q39.38-.21,78.76,0c22.77.09,40.26,17.17,40.52,39.91.28,24.31.23,48.62,0,72.93-.15,16.79-12,30.22-28.65,32.68-4.11.61-5.07,2.42-5.39,6.08-2.66,30.39-5.48,60.78-8.24,91.16-.79,8.7-1.27,17.44-2.42,26.1-1.78,13.36-10.15,22.1-23.47,23.7a96.06,96.06,0,0,1-22.85,0c-14.79-1.79-23.21-12.26-24.41-27.54-1.87-23.78-4.28-47.51-6.43-71.26-1.22-13.54-2.37-27.08-3.58-40.61C101.43,312.76,101.1,310.58,100.8,308.1Zm46.5-53c11.25,0,22.51,0,33.76,0,4.73,0,6.51-1.81,6.52-6.56q0-20.43,0-40.85c0-4.56-1.84-6.86-6.22-6.29-7.42,1-12-1.45-14.13-8.8-1-3.43-3.62-4.83-7.38-4.73-8.19.2-16.4.23-24.59,0-4.08-.13-6.91,1.29-8,5.08-2,7-6.3,9.42-13.5,8.49-5-.64-6.66,1.54-6.68,6.65q0,20,0,40c0,5.37,1.6,7,6.89,7C125.07,255.15,136.18,255.12,147.3,255.12Z"/>
    <path d="M440.56,148.08c0,51-41.94,93.11-93,93.2-51.22.09-93.21-41.9-93.29-93.28-.08-50.71,42-92.95,92.75-93C398.44,55,440.52,96.87,440.56,148.08Zm-24.67,0c.19-37.09-30.71-68.18-68-68.43-37.48-.25-68.75,30.56-68.95,67.91s30.38,68.76,67.39,69A68.78,68.78,0,0,0,415.9,148.08Z"/>
    <path d="M147.36,147.89c-21.81-.08-39.86-18.13-39.81-39.83s18.3-39.86,39.94-39.7a40.18,40.18,0,0,1,39.6,40C187,129.86,168.77,148,147.36,147.89Z"/>
    <path d="M146.72,241.25c-9-.5-16.34-8.45-15.79-17.1.58-9,8.53-16.3,17.18-15.68,8.83.63,16,8.38,15.61,16.87C163.32,234.28,155.35,241.74,146.72,241.25Z"/>
    <path d="M334.34,147.89c-3.38,0-6,0-8.64,0-4.55-.1-4.74-3.22-4.75-6.68s.72-6.13,4.9-6.13c9.59,0,19.17-.06,28.76,0,3.91,0,5.87,2,5.88,6q.09,27.09,0,54.18c0,4.09-2.05,5.92-6.31,6q-6.67.11-13.34,0c-4.66-.07-6.48-1.93-6.49-6.65,0-13.75,0-27.51,0-41.26C334.34,151.71,334.34,150.08,334.34,147.89Z"/>
    <path d="M347.54,95.05a13.08,13.08,0,1,1-13.18,12.86A13.39,13.39,0,0,1,347.54,95.05Z"/>
  </g>
</svg>
