<svg id="18526cfd-f894-4c01-a38b-b8176155b852" data-name="Capa 1" xmlns="http://www.w3.org/2000/svg" viewBox="0 0 508 510.04">
  <title>ICONES_GIS_Mapes_02</title>
  <g>
    <path d="M333.92,134c0,4.92-.36,9.72.11,14.44.33,3.37,3,5.18,6.45,5.2q21.25.1,42.49,0c3.24,0,6-1.76,6.3-4.88.53-4.83.14-9.74.14-14.77ZM327.7,376.23h67.78c0-8.11.32-16-.23-23.94-.13-1.82-3.24-4.88-5-4.91-19-.37-37.92-.33-56.87-.18a5.56,5.56,0,0,0-5.55,5.68c-.25,7.66-.09,15.31-.09,23.35m13.93-209.84q-2.2,84.12-4.37,167.8h48.87c-1.46-56.08-2.92-111.83-4.38-167.8Zm19.76,222.44q-19.19,0-38.36,0c-5.61,0-7.79-2.13-7.81-7.65,0-9.07,0-18.15,0-27.22,0-6.48,2.64-11.59,7.64-15.72a7.05,7.05,0,0,0,2.27-4.69q2.35-83.9,4.38-167.8a6.21,6.21,0,0,0-1.71-4.18,20.67,20.67,0,0,1-6.72-15.81c0-5.64-.06-11.27,0-16.91.06-5.09,2.29-7.36,7.28-7.37q33.41-.06,66.82,0c4.58,0,6.94,2.22,7.05,6.76.15,6.31.15,12.65,0,19a20.23,20.23,0,0,1-6.49,14.25,7.3,7.3,0,0,0-1.92,4.88q2,83.28,4.26,166.56c.06,2.53.61,4.26,2.79,5.85,5,3.64,7.28,8.86,7.35,15q.13,13.81,0,27.63c0,5.2-2.41,7.46-7.66,7.48-13.06,0-26.12,0-39.18,0"/>
    <path d="M118.1,134.08c0,4.68-.2,8.93.06,13.14a6.51,6.51,0,0,0,6.73,6.43q21.2.15,42.41,0c3.59,0,6.27-2,6.62-5.52.44-4.57.11-9.22.11-14.07ZM180,376.23c0-8.13.18-15.81-.07-23.47-.14-4-3.13-5.74-6.79-5.76q-27-.15-54,0c-3.35,0-6.45,1.63-6.64,5-.45,8-.15,16.06-.15,24.25Zm-9.37-41.9c-1.48-56.18-2.94-111.91-4.41-167.84H126.12c-1.47,56.11-2.93,111.91-4.41,167.84Zm-24.43,54.49H107.84c-6.1,0-8.09-2-8.12-8.16,0-8.94,0-17.88,0-26.82,0-6.52,2.68-11.58,7.69-15.68a6.52,6.52,0,0,0,2.22-4.29c.92-38.61,1.63-77.24,2.55-115.86.4-17,1.14-34.08,1.83-51.11.1-2.48-.27-4.33-2.3-6.11a18.12,18.12,0,0,1-6.1-13.92q-.11-9.07,0-18.15c.06-5,2.34-7.26,7.37-7.27q33.2,0,66.41,0c5.06,0,7.21,2.17,7.29,7.3.1,5.91,0,11.82,0,17.74a20,20,0,0,1-6.58,15,6.78,6.78,0,0,0-1.81,4.54q2,83.9,4.32,167.79a6.51,6.51,0,0,0,2.27,4.29,19.76,19.76,0,0,1,7.84,16.06c0,8.94.06,17.88,0,26.82,0,5.72-2.26,7.79-8.15,7.8H146.19"/>
    <path d="M282,134.2h-56.1c0,4.32-.08,8.29,0,12.26.11,4.54,2.68,7.19,7.2,7.22q20.8.11,41.59,0c4.33,0,7-2.53,7.25-6.81.22-4.08,0-8.19,0-12.65M220.11,376.07h67.82c0-7.2,0-14.06,0-20.92,0-5.88-2.28-8.12-8.31-8.17s-12.1,0-18.14,0c-11.13,0-22.26,0-33.39,0-4.81,0-7.76,1.83-7.89,5.47-.27,7.79-.08,15.6-.08,23.62m13.78-209.92c-1.48,56.33-3,112.15-4.42,168.09h48.43c0-2.39,0-4.55,0-6.72-.78-35.6-1.5-71.2-2.39-106.79-.42-16.9-1.23-33.79-1.71-50.69-.09-3-1.06-4.06-4.12-4-6.18.22-12.37.06-18.55.06ZM254,388.83q-19.19,0-38.38,0c-6.1,0-8.17-2-8.21-8.17-.06-8.67,0-17.33,0-26a20,20,0,0,1,8.13-16.77,6.41,6.41,0,0,0,2-4.41c.72-33.28,1.16-66.56,2-99.83.54-22.27,1.54-44.54,2.41-66.81a6.72,6.72,0,0,0-2.41-6.06,16.93,16.93,0,0,1-6-13.1c-.06-6.47-.11-12.94,0-19.4.07-4.62,2.28-6.81,6.9-6.82q33.63-.07,67.27,0c4.5,0,6.73,2.35,6.78,7q.12,9.5,0,19a17.37,17.37,0,0,1-5.87,13.18c-2.13,1.89-2.56,3.82-2.49,6.45q2.12,70.53,4.07,141.07c.23,8.38,0,16.78.3,25.16a7.67,7.67,0,0,0,2.43,5c4.78,4.11,7.5,9,7.47,15.39,0,9.22,0,18.43,0,27.65,0,5.31-2.18,7.46-7.53,7.48-12.93,0-25.86,0-38.79,0"/>
  </g>
</svg>
