<svg id="d5049c64-545c-4ba6-892a-559026bff55f" data-name="Capa 1" xmlns="http://www.w3.org/2000/svg" viewBox="0 0 508 510.04">
  <title>ICONES_GIS_Mapes_02</title>
  <path d="M226,308v38.92c1,.09,1.91.22,2.78.22q38.53,0,77.07,0a18.25,18.25,0,0,0,5.35-.81,67.48,67.48,0,0,0,46.29-73.56c-4-27.73-19.16-46.41-45.4-56.21-2.38-.89-3.74-.53-5.28,1.64C295.46,234.11,284,250,272.61,265.82c-3.89,5.41-7.24,6-12.6,2.15-4.62-3.29-9.22-6.61-14.2-10.18-3.75,4.74-7.46,9.42-11.16,14.11-5.1,6.47-8,6.81-14.38,1.71-5.87-4.67-11.77-9.3-17.65-14-4.7-3.72-5.16-7.29-1.53-12s7.27-9.25,11-14.05c-3-2.16-5.73-4.16-8.48-6.15-5.64-4.06-6.22-7.24-2.21-12.82q33.79-47.07,67.6-94.13,9-12.6,18.1-25.19c3.48-4.83,7.08-5.43,11.89-2.05,2,1.37,3.89,2.77,6.07,4.32.7-.92,1.4-1.77,2-2.67,5.18-7.19,10.33-14.4,15.52-21.59,3.36-4.65,7.07-5.33,11.64-2.07q15.95,11.39,31.83,22.88c4.52,3.27,5,7.16,1.68,11.72-5.8,8-11.57,16-17.47,24.19,2.07,1.52,4,2.94,5.89,4.33,5.14,3.74,5.54,7.41,1.7,12.67-7,9.63-13.94,19.36-20.9,29.06a7.5,7.5,0,0,0-.51,1.05c31.48,15.7,52.61,40.25,62.21,74.13,9.66,34.08,3.68,65.84-16.3,95.83,3.06,0,5.59,0,8.12,0,4.85.09,7.83,3.1,7.82,7.94q-.08,23.52-.21,47c0,6.81-2.38,9.13-9.3,9.13H106.18c-7,0-9.43-2.42-9.44-9.41q0-22.85,0-45.7c0-6.67,2.37-9,9.05-9q50,0,99.92,0h5.65c.08-1.42.19-2.52.19-3.63,0-12.28-.07-24.55.07-36.83,0-2.52-.83-3.52-3.18-4.23-15.1-4.54-30.17-9.21-45.23-13.88-3.89-1.21-6.05-4-5.86-7.38a6.92,6.92,0,0,1,5.52-6.54,11.16,11.16,0,0,1,5,.45c15.74,4.79,31.45,9.68,47.17,14.54,8.88,2.74,17.76,5.45,26.63,8.24,5,1.56,7.17,5,5.94,9.07-1.31,4.34-5.12,6.06-10.15,4.54C233.76,310.38,230.1,309.25,226,308Zm157.81,53.63H111.24v35.11H383.76ZM264,253.33l79-110.12-48-34.43-79,109.93ZM340,347c7.63,0,14.41-.09,21.18,0a6.15,6.15,0,0,0,5.48-2.57c12.85-16,20.57-34.17,22-54.73,2.57-37.92-11.42-68.29-42.36-90.52-5.63-4-12-7-18.17-10.52l-10.42,14.56c29.17,12.54,47.44,33.95,53,65C376.35,300,364.77,325.64,340,347ZM330.87,86.4l-14.09,19.65,22,15.76,14.06-19.64ZM226,259.89l7.89-10.07L223.72,242l-7.8,9.94Z"/>
</svg>
