<svg id="a002b673-86af-4d7b-92be-d9adf5d600a1" data-name="Capa 1" xmlns="http://www.w3.org/2000/svg" viewBox="0 0 508 510.04">
  <title>ICONES_GIS_Mapes_02</title>
  <g>
    <path d="M181.92,405c-1.4-.33-2.78-.71-4.19-1a27.43,27.43,0,0,1-22-24,84.79,84.79,0,0,1-.5-8.76c0-29.33-.17-58.67.06-88,.08-10-3.45-18.25-10.12-25.4-5.4-5.79-11.06-11.35-16.11-17.44-6.65-8-10.65-17.37-10.83-27.89-.36-21.2-.46-42.41-.55-63.62,0-6.44.11-12.9.54-19.32.83-12.27,11.84-23,24.07-24.18a27.45,27.45,0,0,1,20,5.54,2.82,2.82,0,0,0,3.89,0c11.27-7.9,22.43-7.92,33.66,0,1.81,1.28,2.9.68,4.37-.38A27.55,27.55,0,0,1,247.62,127a39.29,39.29,0,0,1,.86,8.43c.07,23.27,0,46.54.05,69.81,0,15.65-4.84,29.31-15.91,40.62-4.92,5-9.83,10.09-14.39,15.43a30.79,30.79,0,0,0-7.3,20.81q.15,46.49,0,93c0,14.55-8.56,25.7-21.94,28.82-1.59.37-3.17.77-4.75,1.16Zm-8.5-74.35q0,22.88,0,45.75c0,6.15,3.77,10.1,9.61,10.11s9.73-3.9,9.74-10c0-16.33-.06-32.65,0-49s.2-32.63.53-48.95c.22-10.63,4.17-20.08,10.87-28.18,5-6,10.57-11.51,15.92-17.21,6.76-7.21,10.39-15.49,10.29-25.63-.24-24.73-.08-49.47-.08-74.2,0-6.39-3.72-10.29-9.76-10.27-5.83,0-9.58,4-9.58,10.15,0,17.7,0,35.39,0,53.09a21.85,21.85,0,0,1-.61,5.21c-1.43,5.7-8.62,8.25-13.42,4.86-3.32-2.34-4.13-5.75-4.13-9.51q0-26.69,0-53.38a13.29,13.29,0,0,0-.47-4c-1.52-4.68-6-7.13-11.18-6.33a9.34,9.34,0,0,0-7.67,9.36c0,17.89,0,35.78,0,53.67a24.23,24.23,0,0,1-.53,4.93,8.73,8.73,0,0,1-17.09,0,23.87,23.87,0,0,1-.53-4.93c0-17.6,0-35.2,0-52.79a12.8,12.8,0,0,0-.41-3.75c-1.49-4.79-6.14-7.37-11.39-6.45a9.37,9.37,0,0,0-7.53,9.49c0,25.52,0,51,0,76.55,0,6.77,1.64,13.07,5.82,18.35,4,5,8.69,9.51,12.85,14.42a157.89,157.89,0,0,1,12,15.13c5.6,8.53,6.8,18.41,6.9,28.37C173.53,300.55,173.42,315.61,173.42,330.66Z"/>
    <path d="M326.21,105.11l7.42,1.07C351,108.69,363.23,118.53,372.2,133c8.15,13.14,12.76,27.65,15.23,42.76a247.3,247.3,0,0,1,3.43,31.94c.44,13.89-4.41,26.24-13.89,36.58-5.35,5.83-11,11.41-16.15,17.39a30.63,30.63,0,0,0-7.35,20.78q.12,46.62,0,93.24c0,14.37-8.55,25.47-21.8,28.6-15.78,3.73-31.83-7.63-33.39-23.7-.32-3.29-.51-6.62-.52-9.93,0-28.93-.19-57.86.07-86.79.09-10.26-3.56-18.59-10.4-25.87-5.28-5.62-10.79-11.06-15.72-17a46.75,46.75,0,0,1-11.06-28.42,15.8,15.8,0,0,0-.76-3.08v-2.93a19,19,0,0,0,.73-2.78c1-9.28,1.61-18.64,3.15-27.84,2.54-15.19,7.08-29.8,15.28-43,9-14.46,21.23-24.29,38.54-26.8l7.42-1.07ZM315.95,330.57q0,23.17,0,46.34c0,6.18,3.75,10.1,9.62,10.11s9.73-3.88,9.73-10c0-22.78,0-45.56,0-68.33,0-9.77.21-19.53.49-29.3a46.12,46.12,0,0,1,11.27-28.93c4.9-5.83,10.33-11.2,15.55-16.76,6.76-7.2,10.51-15.45,10.31-25.61a172.56,172.56,0,0,0-5.65-41.05c-3-11.13-7.25-21.65-14.65-30.7A34.73,34.73,0,0,0,307,128.89c-7.09,4.63-12,11.19-15.66,18.64-9.21,18.67-12.14,38.72-13,59.28-.45,11,3.49,20,11,27.69,4.9,5,9.82,10.09,14.42,15.4,8.65,10,12.08,21.93,12.16,34.92C316,300.07,315.95,315.32,315.95,330.57Z"/>
  </g>
</svg>
