<svg id="86cbf1e7-b34f-4f51-8084-cae8ed89b3be" data-name="Capa 1" xmlns="http://www.w3.org/2000/svg" viewBox="0 0 508 510.04">
  <title>ICONES_GIS_Mapes_02</title>
  <g>
    <path d="M375.39,324.95v16.8h-4.26q-88.5,0-177,0c-17.37,0-30.74-10.52-34.1-26.74a32.6,32.6,0,0,1,2.85-21.61c3.75-7.56,7.58-15.08,11.09-22.75a7.93,7.93,0,0,0,.18-5.72q-28.63-68-57.46-135.86c-1.19-2.82-2.54-3.93-5.68-3.78-5.93.29-11.89.08-18.06.08V108.79c10.73,0,21.22-.07,31.71.12.9,0,2.11,1.64,2.6,2.77,3.95,9,7.84,18.1,11.55,27.23,1,2.39,2.17,3.26,4.84,3.25q103.12-.13,206.24-.08c8.45,0,16.9-.05,25.34,0,13.75.13,24,6.37,30.08,18.6s4.6,24.17-3.62,35.16q-24.16,32.3-48.32,64.6c-7.27,9.76-16.77,14.64-29,14.62-43.28-.09-86.55,0-129.83-.11-3.05,0-4.65.87-5.92,3.64-3.24,7.08-6.91,14-10.22,21-5.07,10.79-1,21.47,9.48,24.6a23,23,0,0,0,6.54.7q87.92,0,175.83,0Zm-228-166.26c.46,1.32.66,2.05,1,2.75q20,47.09,39.94,94.22c1.12,2.67,2.7,2.87,5,2.87q65.48-.06,131,0a18.26,18.26,0,0,0,15.61-7.92q23.86-32,47.88-63.93a24.73,24.73,0,0,0,3.06-4.95c4.78-11.18-3.49-23-16.12-23q-84.58-.05-169.16,0Z"/>
    <path d="M192.39,424.78a33.24,33.24,0,1,1,33.48-32.54A33.09,33.09,0,0,1,192.39,424.78Zm-.09-16.58A16.65,16.65,0,1,0,176,391.29,16.81,16.81,0,0,0,192.31,408.2Z"/>
    <path d="M342.28,424.75a33.23,33.23,0,1,1,33.29-33.08A33,33,0,0,1,342.28,424.75Zm.12-16.55a16.65,16.65,0,1,0-16.73-16.52A16.85,16.85,0,0,0,342.4,408.2Z"/>
  </g>
</svg>
