<svg id="9b8cf0ef-d19a-470e-8178-1f9320e9ee67" data-name="Capa 1" xmlns="http://www.w3.org/2000/svg" viewBox="0 0 508 510.04">
  <title>ICONES_GIS_Mapes_02</title>
  <g>
    <path d="M113.9,104.11,92.63,127.45l29.44,26.86c7.13-7.81,14-15.39,21.29-23.32Z" fill="#fff"/>
    <path d="M76.3,48.73c7-7.62,16.35-8.15,24-1.35s15.33,13.83,22.89,20.86c6.21,5.76,7.23,12.89,3.65,20.59-.61,1.35-.49,4.12.45,5,16.72,15.55,33.64,30.9,50.81,46.57a20.51,20.51,0,0,0,2.29-1.68c16.76-17,47.78-19.85,69.7,1.33,21.59,20.88,44.25,40.63,66.46,60.87Q392,269.65,467.3,338.44c14.79,13.5,15.59,32.9,2.19,47.61q-32,35.16-64.11,70.25C392.6,470.24,373,471.18,359,458.44Q248.6,357.88,138.34,257.22c-17-15.49-20.86-39.4-9.94-59.56,1.74-3.2,4-6.15,5.92-9.18a9.86,9.86,0,0,0-1-1.54c-16.45-15-32.86-30.14-49.5-45-1-.92-4-.8-5.41,0-7.07,4-14.3,3.71-20.43-1.74-7.87-7-15.67-14-23.3-21.25-7.23-6.86-7.54-16.21-.82-23.62Q55,71.94,76.3,48.73ZM112.36,81,88.88,59.57C74.66,75.19,60.47,90.76,46,106.63L69.44,128Zm9.71,73.33c7.13-7.81,14-15.39,21.29-23.32L113.9,104.11,92.63,127.45Zm25,45c-12.64,15.74-11.39,33.46,3.56,47.21,22,20.22,44.11,40.28,66.18,60.4L366.32,443.32c1.5,1.37,3,2.79,4.57,4,7.09,5.45,15.84,5.16,21.92-1.43q33-35.77,65.6-71.91c6.88-7.62,5.76-16.53-2.66-24.28Q426,322.42,396.11,295.29q-76.19-69.52-152.41-139c-4.36-4-8.69-8.17-13.71-11.1-12.56-7.36-28.13-4.81-38.62,5.57-8,7.89-16.45,8.11-24.87.64-3.4-3-6.74-6.15-10.39-9.45L134.16,166c3.93,3.59,7.79,6.95,11.47,10.47C152.46,183.06,153,191.95,147,199.32Z"/>
    <path d="M46,106.64,69.44,128,112.37,81,88.89,59.57C74.67,75.19,60.47,90.76,46,106.64Z" fill="#9e3000"/>
    <g id="f38324f7-1985-4ac6-ad1d-b58280284231" data-name="&lt;Grupo&gt;">
      <path d="M156.12,142c3.65,3.3,7,6.41,10.39,9.45,8.42,7.48,16.9,7.25,24.87-.64,10.49-10.39,26.06-12.93,38.62-5.57,5,2.93,9.34,7.15,13.71,11.1q76.25,69.42,152.41,139,29.84,27.2,59.64,54.42c8.42,7.74,9.55,16.66,2.66,24.28q-32.58,36.17-65.6,71.91c-6.09,6.6-14.83,6.88-21.92,1.43-1.62-1.23-3.07-2.64-4.57-4L216.78,306.93c-22.07-20.12-44.19-40.18-66.18-60.4-15-13.75-16.21-31.47-3.56-47.21,5.94-7.38,5.43-16.27-1.39-22.82C142,173,138.11,169.62,134.17,166ZM273.68,337q40.66,37.06,81.28,74.13c9.69,8.83,18.21,8.38,27.15-1.39q20.31-22.25,40.59-44.52c7.42-8.17,7.11-17.39-1-24.81Q339,265,256.29,189.58c-8-7.31-17.5-6.82-24.89,1.21Q210.65,213.37,190,236.13c-7.79,8.56-7.4,17.82,1.17,25.65Q232.4,299.45,273.68,337Z" fill="#9e3000"/>
      <path d="M190,236.13c-7.79,8.56-7.4,17.82,1.17,25.65Q232.4,299.45,273.68,337q40.66,37.06,81.28,74.13c9.69,8.83,18.21,8.38,27.15-1.39q20.31-22.25,40.59-44.52c7.42-8.17,7.11-17.39-1-24.81Q339,265,256.29,189.58c-8-7.31-17.5-6.82-24.89,1.21Q210.65,213.37,190,236.13Z" fill="#fff"/>
    </g>
    <path d="M231.38,190.78c7.4-8,16.86-8.52,24.89-1.21Q339,265,421.66,340.43c8.13,7.42,8.44,16.64,1,24.81q-20.22,22.31-40.59,44.52c-8.93,9.77-17.46,10.22-27.15,1.39Q314.29,374.09,273.67,337q-41.24-37.62-82.47-75.25c-8.56-7.83-9-17.09-1.17-25.65Q210.69,213.41,231.38,190.78Zm136.8,209.84c14.3-15.65,28.52-31.27,43-47.14L244.35,201.31l-43,47.14Z"/>
  </g>
</svg>
