<svg id="837de38b-c5e2-43b0-80e0-eafd8023b44b" data-name="Capa 1" xmlns="http://www.w3.org/2000/svg" viewBox="0 0 508 510.04">
  <title>ICONES_GIS_Mapes_02</title>
  <g>
    <path d="M389.53,222.92c11.24,0,21-6.73,24.19-16.76,3-9.38-.42-19.3-8.75-25.29l-137-98.37a26.42,26.42,0,0,0-31.13.17L102.81,181c-8.21,6-11.55,15.94-8.5,25.25,3.26,10,13,16.64,24.15,16.64h24.33V348.43h-9.65a34,34,0,0,0,0,68.09h244.7a34,34,0,1,0,0-68.09h-11V222.92ZM112.09,200.45c-.54-1.64,0-3.06,1.79-4.34l134-98.36a7.77,7.77,0,0,1,9.15,0l137,98.37c1.78,1.28,2.39,2.7,1.85,4.36s-2.57,3.78-6.38,3.78H118.46C114.67,204.22,112.66,202.19,112.09,200.45Zm172.63,148V222.92h22.37V348.43ZM224.94,222.92V348.43H202.57V222.92Zm18.71,0H266V348.43H243.65Zm-82.15,0h22.37V348.43H161.5ZM393.17,382.48a15.35,15.35,0,0,1-15.33,15.34H133.13a15.33,15.33,0,0,1,0-30.67h244.7A15.35,15.35,0,0,1,393.17,382.48Zm-45-34H325.8V222.92h22.37Z"/>
    <path d="M173.19,192H336.72A9.38,9.38,0,0,0,342.07,175l-81.43-56.49-.34-.22a9.4,9.4,0,0,0-9.84-.11l-.49.31L167.84,175A9.38,9.38,0,0,0,173.19,192Zm82.07-54.52,51.63,35.81H203.21Z"/>
  </g>
</svg>
