<svg id="1e662247-6465-4216-99b1-dea92939ab6f" data-name="Capa 1" xmlns="http://www.w3.org/2000/svg" viewBox="0 0 508 510.04">
  <title>ICONES_GIS_Mapes_02</title>
  <g>
    <path d="M149.43,86.55H357.67c1.71,1,3.73,1.59,5.07,2.92q26.84,26.55,53.53,53.26c1.8,1.79,2.8,3.75,1.7,6.24s-3.15,3.19-5.68,3.22c-4.94.07-4.94.11-4.94,5q0,125.08,0,250.16c0,6.73-1.41,8.17-8.18,8.17H108.43c-6.57,0-8-1.48-8-8q0-124.91,0-249.82c0-1.73,0-3.46,0-5.34-1.47-.09-2.45-.23-3.42-.2-2.89.1-5.75-.1-7-3.18s.61-5.37,2.76-7.51c16.91-16.8,33.75-33.68,50.68-50.47A52.07,52.07,0,0,1,149.43,86.55ZM253.9,174.14q-69.69,0-139.37-.06c-2.95,0-4,.64-4,3.82.12,30.38.06,60.76.07,91.14,0,4.6,0,4.61,4.53,4.61q138.87,0,277.75.07c3.35,0,4.32-.91,4.3-4.3-.13-30.27-.07-60.54-.08-90.81,0-4.46,0-4.48-4.53-4.48Zm.21,109.76h-139c-4.44,0-4.46,0-4.46,4.55,0,30.27,0,60.53-.06,90.8,0,3.16.83,4.2,4.07,4.19q45.73-.16,91.46,0c3.52,0,4.18-1.17,4.17-4.4-.12-25.5-.07-51-.07-76.5,0-5.35,1.57-7,6.87-7q36.75,0,73.5,0c5.5,0,7,1.55,7,7.18,0,25.5.06,51-.06,76.5,0,3.16.81,4.17,4.06,4.16,30.38-.11,60.75-.06,91.13-.07,4.44,0,4.45,0,4.45-4.36,0-30.38,0-60.76.07-91.13,0-3.21-.87-4.06-4.06-4.05Q323.63,284,254.11,283.91ZM400.21,141.7c-1.1-1.35-1.59-2.07-2.2-2.68-13.4-13.4-26.78-26.83-40.3-40.12A7.42,7.42,0,0,0,353,97.21c-9.75-.16-19.51-.09-29.26-.09q-84,0-167.93,0c-2.39,0-4.42.26-6.3,2.16-13,13.16-26.16,26.2-39.25,39.29-.8.8-1.47,1.73-2.68,3.15ZM287.3,355.38c0-15.4-.05-30.81.05-46.21,0-2.64-.83-3.38-3.43-3.37q-29.92.15-59.84,0c-2.64,0-3.68.59-3.67,3.47q.14,46.21,0,92.42c0,2.73.84,3.68,3.6,3.67q29.75-.14,59.51,0c2.85,0,3.86-.8,3.84-3.77C287.23,386.18,287.3,370.78,287.3,355.38ZM253.84,152.18H117.19c-6.57,0-6.57,0-6.57,6.45,0,5.25,0,5.27,5.17,5.27h274c7.36,0,7.36,0,7.37-7.36,0-4.35,0-4.35-4.31-4.35Zm44,241.44a14.78,14.78,0,0,0-.27,1.6q0,2.66,0,5.32c0,4.78,0,4.79,4.65,4.79l87.39,0c7.54,0,7.34,0,7.61-7.55.12-3.45-.95-4.23-4.27-4.21-30.35.13-60.7.07-91,.07Zm-88.14,0h-92c-7.17,0-7.17,0-7.15,7.16,0,4.52,0,4.54,4.62,4.54q42.53,0,85.07,0c10.69,0,10.69,0,9.76-10.8A7.37,7.37,0,0,0,209.72,393.62Z"/>
    <path d="M253.82,250.74c-10.53,0-21.05,0-31.58,0-2.9,0-5.41-.5-6.13-3.76-.67-3,.69-4.95,3.5-6.33,1-.48,1.71-2.39,1.72-3.66.12-14.63.07-29.25.08-43.88,0-6.12,1.17-7.27,7.41-7.27q25.6,0,51.19,0c4.79,0,6.33,1.58,6.34,6.37q0,22.11,0,44.21c0,2.22.06,3.93,2.76,4.83,2.53.85,3.13,3.32,2.52,5.83s-2.35,3.61-4.88,3.61H253.82Zm-22-10.27c5.25,0,10.2.06,15.15-.08a2.5,2.5,0,0,0,1.67-1.78c.12-6.29.11-12.59,0-18.89a2.24,2.24,0,0,0-1.53-1.57c-5-.12-10.08-.07-15.28-.07Zm44.08-22.41c-5.23,0-10.08-.09-14.92.1a3,3,0,0,0-1.92,2.19c-.16,6-.14,11.93,0,17.89,0,.74.84,2.09,1.32,2.11,5.14.15,10.28.1,15.55.1Zm-44-21.95c-.09,1.22-.2,2.07-.22,2.93-.17,8.8-.16,8.8,8.57,8.76s8.8,0,8.51-8.88c0-.33.12-.77,0-1-.53-.66-1.16-1.74-1.77-1.75C242,196,237,196.11,231.9,196.11Zm44.16,0H267.5c-9.07,0-9.07,0-8.49,9.11,0,.11,0,.27,0,.33.71.76,1.4,2.11,2.15,2.15,4.31.21,8.64.17,13,0A2.55,2.55,0,0,0,276,206C276.16,202.88,276.06,199.69,276.06,196.1Z"/>
    <path d="M341.53,250.73c-10.53,0-21.06,0-31.6,0-2.81,0-5.19-.6-5.89-3.63s.44-5,3.36-6.41c1-.46,1.79-2.34,1.8-3.58.12-14.85.06-29.71.07-44.57,0-5.23,1.48-6.73,6.68-6.73q26.11,0,52.22,0c4.39,0,6,1.56,6.07,6q.08,22.45,0,44.9c0,2,0,3.6,2.4,4.42a4.44,4.44,0,0,1,3,5.54c-.6,2.73-2.37,4.08-5.24,4.07C363.48,250.71,352.5,250.73,341.53,250.73ZM364,218.07c-5.36,0-10.33-.08-15.29.1-.62,0-1.71,1.34-1.72,2.08q-.22,9,0,17.93c0,.77,1,2.16,1.61,2.18,5.05.17,10.11.1,15.41.1Zm-27.52,0c-5.26,0-10.11-.06-15,.07-.66,0-1.84,1-1.85,1.56-.13,6.81-.08,13.63-.08,20.54h16.89Zm27-22c-4.43,0-8.94.12-13.44,0-2.48-.09-3.28.78-3.22,3.22.26,10.08-1.43,8.42,8.22,8.52,10,.1,10.6-.73,8.87-10.87A6.22,6.22,0,0,0,363.47,196.09Zm-43.94.19c0,3.39-.15,6.38.1,9.33a3,3,0,0,0,2.1,2.06c4.2.2,8.42.19,12.62,0,.76,0,2.08-1.08,2.13-1.73.22-3.15.1-6.33.1-9.68Z"/>
    <path d="M165.69,250.74c-10.64,0-21.28,0-31.92,0-2.94,0-5-1-5.67-4s.74-5,3.48-5.89c2.2-.75,1.89-2.42,1.9-4.05q0-21.78,0-43.56c0-6.41,1.08-7.43,7.62-7.44q25.44,0,50.88,0c5,0,6.47,1.54,6.48,6.57q0,22.45,0,44.89c0,1.82.23,3.11,2.29,3.77,2.78.9,3.56,3.23,3,5.89s-2.48,3.76-5.14,3.75Zm-21.83-10.27c5.26,0,10.23.08,15.18-.09.64,0,1.76-1.31,1.77-2,.14-6.09.13-12.18,0-18.26,0-.68-1-1.9-1.55-1.92-5.06-.15-10.13-.09-15.41-.09Zm27.49-.21H188V218.34H171.35Zm-27.21-44.14a8.52,8.52,0,0,0-.44,1.58c-.08,1.76-.13,3.53-.13,5.29,0,4.8,0,4.8,4.64,4.8,1.44,0,2.87,0,4.31,0,9.9-.22,8.23,1.74,8.4-8.64,0-.33.12-.77,0-1-.59-.73-1.26-2-1.93-2C154,196,149.05,196.11,144.14,196.11Zm44.09.21H171.16c0,3.3-.12,6.38.09,9.44a2.8,2.8,0,0,0,1.93,1.92c4.31.18,8.64.18,13,0a2.81,2.81,0,0,0,2-1.86C188.36,202.77,188.23,199.68,188.23,196.33Z"/>
    <path d="M341.63,360.48c-10.53,0-21.06,0-31.59,0-2.8,0-5.21-.59-6-3.57-.8-3.13.58-5.21,3.56-6.62.88-.42,1.58-2.2,1.59-3.36.1-14.74.07-29.49.07-44.23,0-5.84,1.3-7.13,7.25-7.13q25.44,0,50.88,0c5.54,0,6.86,1.34,6.86,6.85,0,14.52,0,29,0,43.57,0,2.37.2,4.1,2.92,5.1,2.19.81,3.18,3,2.5,5.5-.75,2.75-2.63,3.9-5.43,3.89C363.36,360.46,352.49,360.48,341.63,360.48Zm22.48-10.23c0-7.24.06-14-.1-20.69,0-.59-1.37-1.63-2.14-1.66-4.2-.16-8.41-.2-12.6,0a3.26,3.26,0,0,0-2.3,2.19c-.2,6-.19,11.95,0,17.92a3,3,0,0,0,2,2.12C353.82,350.34,358.68,350.24,364.11,350.24ZM319.7,350h16.66V328.09H319.7Zm44.42-44.17c-5.44,0-10.17.06-14.9,0-2,0-2.73,1-2.33,2.63.74,3-2.14,6.81,2,9a.75.75,0,0,0,.33,0c4.19,0,8.39.11,12.57-.09a3.11,3.11,0,0,0,2.24-2C364.28,312.39,364.13,309.31,364.13,305.85Zm-44.6.19c0,3.3-.18,6.19.11,9a3.34,3.34,0,0,0,2.19,2.35c4.19.23,8.41.18,12.61,0,.73,0,2-.93,2-1.49.19-3.26.1-6.54.1-9.92Z"/>
    <path d="M165.8,360.48c-10.53,0-21.06-.05-31.59,0-3.17,0-5.54-.91-6.17-4.21-.56-3,1.23-4.55,3.67-6,1-.56,1.7-2.4,1.71-3.67.12-14,.07-27.93.06-41.9,0-1,0-2,0-3,.1-4.68,1.55-6.17,6.17-6.19,9.09,0,18.18,0,27.27,0h24.94c5,0,6.6,1.49,6.61,6.45q0,22.28,0,44.56c0,2,.2,3.52,2.51,4.29,2.61.88,3.3,3.17,2.79,5.7s-2.39,3.87-5,3.87Zm-22-32.66v22.43c5.22,0,10.18.08,15.13-.09a2.77,2.77,0,0,0,1.85-2q.22-9.12,0-18.25a2.79,2.79,0,0,0-1.82-2C154,327.74,149.06,327.82,143.83,327.82ZM171.36,350H188V328.1H171.36Zm-27.17-44.12c-2.46,10-1.27,11.77,8.17,11.63,10.07-.15,8.39,2,8.55-9.25,0-.33.09-.77-.08-1-.44-.52-1-1.33-1.52-1.34C154.24,305.85,149.17,305.89,144.19,305.89Zm27,.17c0,3.32-.15,6.2.09,9.05.07.85,1.22,2.25,1.93,2.28,4.42.2,8.85.15,13.27,0a2.31,2.31,0,0,0,1.67-1.5c.16-3.26.08-6.53.08-9.85Z"/>
    <path d="M242.78,355.33a5.43,5.43,0,0,1-5.19,5.35,5.24,5.24,0,1,1-.22-10.47A5.5,5.5,0,0,1,242.78,355.33Z"/>
  </g>
</svg>
