<svg id="47a49814-77fe-4aa7-8731-19c78542439e" data-name="Capa 1" xmlns="http://www.w3.org/2000/svg" viewBox="0 0 508 510.04">
  <title>ICONES_GIS_Mapes_02</title>
  <g>
    <path d="M243.92,446.07c-4.61-2.37-6.07-6.26-6-11.26.19-8.37.11-16.75.05-25.12-.07-10.06-5.56-16.74-15.55-18.58-23.11-4.25-44.25-12.82-62.24-28.28-20.54-17.64-31.72-40.25-36-66.8-4.34-27.15,2.26-52.34,12.68-77,13.65-32.26,31.49-62.21,51.63-90.72,16.23-23,33.67-45.11,50.59-67.61,2.12-2.81,4.41-4.95,8.51-4.65a8.66,8.66,0,0,1,6.81,3.34c31.34,39.32,60.85,79.91,85,124.12,12.37,22.62,23.82,45.79,28.74,71.29,6.93,35.88,1.2,69.56-21.71,98.91-15.83,20.27-37.79,30.91-62.45,36.49-4.18.94-9.31-2.45-10.42-6.49-1.21-4.41,1.72-9.5,6.48-11.07,5.65-1.87,11.46-3.3,17-5.52,32.68-13.23,50-38.06,55-72.49,3.74-25.64-2.64-49.27-12.77-72.36-14.38-32.79-33.29-62.94-53.93-92C274,114.15,261.74,98.6,249.83,82.8c-.82-1.09-1.77-2.07-2.94-3.44-2.5,3.1-4.83,5.9-7.08,8.76-29.53,37.7-57.07,76.71-78.53,119.69-8.85,17.72-16.83,35.91-19.47,55.73-5.41,40.61,10.1,81.51,55.31,100.93,9.35,4,19.4,6.61,29.33,9,18.09,4.44,29.29,17.95,29.42,36.54.06,8.25-.13,16.5.07,24.74.12,5-1.35,8.88-5.92,11.27Z"/>
    <path d="M255.88,180.19c7.09-5.61,13.53-10.34,19.54-15.56,5.09-4.42,11.59-2.59,14,.47,3.14,4.06,1.9,9.78-3.08,13.55-9.31,7-18.68,14-27.95,21.08-1.07.82-2.33,2.29-2.34,3.47-.17,12.67-.11,25.35-.11,38.83,1.59-1,2.7-1.7,3.75-2.44l43.25-30.41c5.12-3.6,10-3.05,13.31,1.45s2.07,9.29-3.15,13Q286,243,258.83,262.24a6.31,6.31,0,0,0-3,5.93c.13,14.32.06,28.65.06,43.85,1.62-1.16,2.68-1.87,3.7-2.65Q289.73,286.16,319.9,263a13.3,13.3,0,0,1,5.36-2.59,8.37,8.37,0,0,1,9.39,4.81,9.41,9.41,0,0,1-3.22,11.18q-19,14.89-38.12,29.7c-11.61,9-23.18,18.13-34.85,27.08a5.86,5.86,0,0,0-2.62,5.39c.17,6,.13,11.93,0,17.89-.11,6.5-3.31,9.87-9.06,9.78-5.22-.08-8.71-3.94-8.77-9.88-.06-6.22-.11-12.44.05-18.65a5.92,5.92,0,0,0-2.63-5.4q-36.54-28.32-73-56.78c-4.63-3.61-5.47-8.76-2.11-13.25,3-4,8.19-4.39,12.84-.83Q204.17,285.19,235,309c.69.53,1.42,1,2.55,1.85a24.18,24.18,0,0,0,.42-3.05c0-13.83-.06-27.66.06-41.49,0-2.43-1.08-3.61-2.84-4.85q-26.85-19-53.6-38.18a14.72,14.72,0,0,1-4.2-4.25,8.52,8.52,0,0,1,1.63-10.77,9.52,9.52,0,0,1,11.65-.2c9.08,6.48,18.1,13.06,27.15,19.59L237.69,242c.15-1.43.33-2.35.33-3.28,0-10.91-.1-21.82.07-32.73A6.45,6.45,0,0,0,235,200c-9.21-6.74-18.3-13.64-27.42-20.51-5-3.73-6.22-9.49-3-13.53s8.86-4.24,13.63-.68c6.37,4.75,12.72,9.53,19.57,14.68.12-1.7.25-2.77.25-3.83,0-10.15,0-20.3,0-30.45,0-5.91,3-9.3,8-9.65,6-.41,9.69,3,9.77,9.4.11,9.77,0,19.54,0,29.31C255.89,176.25,255.88,177.74,255.88,180.19Z"/>
  </g>
</svg>
