<svg id="e2b79f61-d6ed-429d-acdd-beac125e380a" data-name="Capa 1" xmlns="http://www.w3.org/2000/svg" viewBox="0 0 508 510.04">
  <title>ICONES_GIS_Mapes_02</title>
  <g>
    <path d="M63.15,304.9c2.93-4.51,7.49-5.54,12.41-5.76,11.26-.5,22.54-.72,33.78-1.52,27.86-2,55.65-2.11,83.34,2.1a21.45,21.45,0,0,1,4.75,1.27c-2.35-.16-4.69-.35-7-.49A367.56,367.56,0,0,0,116.84,304c-13.49,2-26.89,4.55-40.34,6.83-4.82.82-9.49.82-13.35-2.87Z"/>
    <path d="M195.08,449.65c-3.41-3.55-3.7-7.73-2.49-12.22,4.34-16,8.54-32,13.06-47.86,5.55-19.52,11.39-39,17.88-58.27a11.19,11.19,0,0,1,0,2.17c-5.82,28.9-11.72,57.78-17.43,86.7a97.66,97.66,0,0,0-1.69,15.71c-.17,5.39-1.45,10.08-5.54,13.77Z"/>
    <path d="M287.88,270.18c15.46-9.58,30.66-19.62,46.45-28.64,23.85-13.63,48.14-26.51,72.18-39.81,7.46-4.13,14.56-8.95,22.13-12.84A81,81,0,0,1,444,183.39c1.34-.37,3.87.83,4.64,2.06.58.93-.3,3.66-1.38,4.56-3.43,2.86-7,5.85-11,7.7-19.21,8.92-38.88,16.88-57.82,26.32C349.42,238.55,320.83,254,292,269c-1.19.62-2.37,1.27-3.56,1.91Z"/>
    <path d="M301.21,236.42c8.56-10.17,17.22-20.24,25.65-30.51a476.56,476.56,0,0,1,64.22-64c3.57-3,6.51-6.73,10.24-9.43a76.1,76.1,0,0,1,12.94-7.22c1.14-.53,3.64.33,4.56,1.39.74.85.67,3.45-.11,4.41-2.65,3.27-5.25,7.08-8.79,9-19.08,10.6-35.57,24.6-51.19,39.47-18.55,17.66-36.06,36.4-54,54.68-.95,1-1.86,2-2.79,2.94Z"/>
    <path d="M284.64,278.62c16.22-7.31,32.33-14.89,48.69-21.87,21.44-9.16,43.09-17.82,64.61-26.76,4.51-1.87,8.77-4.4,13.37-6a52.63,52.63,0,0,1,12.33-2.64c1.59-.15,4.47,1.33,4.77,2.56a6.28,6.28,0,0,1-2.1,5.35,33.34,33.34,0,0,1-9.6,4.83c-15,4.57-30.24,8.2-45,13.36-27.92,9.76-55.56,20.34-83.31,30.58l-3.45,1.26Z"/>
    <path d="M286.32,261.43q33.1-26.12,66.18-52.26c10.5-8.35,20.68-17.11,31.28-25.34a26.34,26.34,0,0,1,10.33-4.72c3.67-.79,6,2.51,4,5.69a29.78,29.78,0,0,1-8.16,8.43c-5.34,3.7-11.41,6.35-16.77,10-27.65,18.92-55.18,38-82.75,57.07-1.1.76-2.21,1.49-3.31,2.24Z"/>
    <path d="M294.37,291.22c21.7-6.31,43.68-11.07,66.31-12.81,18.37-1.41,36.83-2.23,54.91-6.52,3.47-.82,7.44-.15,11.05.52a5.38,5.38,0,0,1,3.44,3.78,5.51,5.51,0,0,1-2.7,4.36A25.29,25.29,0,0,1,418.1,283c-15.42.51-30.85.86-46.28.93a396.53,396.53,0,0,0-76.34,7.33A4.42,4.42,0,0,1,294.37,291.22Z"/>
    <path d="M215.64,229.38q-5.38-15.72-10.77-31.43c-8-23.48-16-47-24.15-70.42-1.52-4.36-3.86-8.42-5.73-12.66-1.74-3.93-3.26-8-1.8-12.35,1.16-3.48,4.1-4.63,6.64-2.05a20.37,20.37,0,0,1,5.28,8.4c7.37,27.47,14.44,55,21.57,82.54,3.08,11.89,6.09,23.8,9.13,35.7.18.7.26,1.42.39,2.13Z"/>
    <path d="M279.54,324.38c3.38,1.23,6.74,2.51,10.14,3.69a409.84,409.84,0,0,1,77.41,36.61c5.89,3.56,12.3,6.24,18.27,9.67a36.45,36.45,0,0,1,8.8,6.78c1.2,1.31,1.7,4.69.82,6s-4.08,2.09-5.86,1.6a28,28,0,0,1-8.54-4.4c-3.77-2.68-7-6.09-10.83-8.72a500.51,500.51,0,0,0-85.43-48.17c-1.71-.75-3.38-1.58-5.07-2.38Z"/>
    <path d="M207.13,296.67c-3.36-1.22-6.71-2.46-10.07-3.67-23.09-8.28-47-13.18-71.1-17.42-11.09-2-22.35-2.9-33.49-4.59a25.3,25.3,0,0,1-8.66-3.16,5.6,5.6,0,0,1-2.33-4.6c.23-1.4,2.2-3.22,3.69-3.55a19,19,0,0,1,8.46-.18c16.5,4.19,32.92,8.66,49.36,13.07,21.09,5.66,41.78,12.44,61.45,22,1,.48,1.92,1,2.88,1.55Z"/>
    <path d="M290.33,188.11c.66-1.43,1.29-2.88,2-4.3,14.06-29.12,27.38-58.62,44.23-86.32,2.66-4.37,4.32-9.36,7-13.71a37.2,37.2,0,0,1,7.32-8.25,5,5,0,0,1,4.81-.08,5.67,5.67,0,0,1,1.78,4.83,29.39,29.39,0,0,1-4.16,9.06c-4.78,6.73-10.57,12.81-14.88,19.81-15.3,24.89-30.15,50.06-45.16,75.13l-2.45,4.08Z"/>
    <path d="M281.7,236.6c.44-.83.84-1.68,1.33-2.48,16.35-26.52,33.16-52.71,53.05-76.79,3.43-4.15,6.08-8.94,9.53-13.07a33.24,33.24,0,0,1,8.12-7c1.3-.79,4.2-.4,5.44.6,1.05.85,1.46,3.63.91,5.08-1,2.6-2.42,5.52-4.55,7.14-13.28,10.08-23.4,23.12-33.72,35.89-12.87,15.91-25.12,32.32-37.64,48.51-.64.82-1.31,1.61-2,2.42Z"/>
    <path d="M174.28,241.26c-10.62-10.85-20.8-22.18-32-32.43-16.35-15-33.45-29.2-50.12-43.88a23.93,23.93,0,0,1-5.59-7.32,6.07,6.07,0,0,1,.79-5.44c.88-1,3.66-1.31,5.1-.72a21,21,0,0,1,7.08,4.7c12.63,13.26,25.33,26.47,37.54,40.12,12.94,14.47,25.36,29.42,38,44.16Z"/>
    <path d="M255.29,319.15c7.18,4.7,14.54,9.17,21.52,14.15,18.07,12.88,36,26,54,39,4.88,3.52,10.05,6.65,14.74,10.41a36.21,36.21,0,0,1,7.34,8.24c.76,1.14.35,4-.63,5.07a5.68,5.68,0,0,1-5,1.1c-2.63-.93-5.59-2.29-7.23-4.39-9.2-11.84-21-20.81-32.4-30.26-16.69-13.88-33.74-27.31-50.63-40.94-.71-.57-1.38-1.2-2.07-1.8Z"/>
    <path d="M190.79,211.48c-7.63-14.25-15.17-28.54-22.92-42.73-6.49-11.88-13.08-23.71-19.91-35.4-3.6-6.16-8-11.83-11.63-18a26,26,0,0,1-3.65-10c-.47-4.33,3.53-6.4,7.09-3.8a17.79,17.79,0,0,1,5.45,6.47c6.47,13.69,12.74,27.48,18.91,41.31,8.77,19.68,17.4,39.43,26.08,59.15.39.89.68,1.82,1,2.73Z"/>
    <path d="M205.32,331.89c-3.86,3.51-7.69,7-11.58,10.51-20.63,18.43-37.17,40.36-53.45,62.51-1.92,2.61-3,5.8-5,8.39a30.4,30.4,0,0,1-6.72,6.83c-1.3.9-4.37,1-5.45,0a6.68,6.68,0,0,1-1.61-5.58,16,16,0,0,1,3.67-6.81c8.36-9.33,17.12-18.3,25.39-27.71a300,300,0,0,1,51.48-46.63c1-.68,2-1.31,2.94-2Z"/>
    <path d="M274.86,191.63c.67-2.86,1.28-5.73,2-8.58,6.45-25.26,13.32-50.39,22.7-74.77,2-5.24,3-10.89,5-16.13a25.12,25.12,0,0,1,5.53-9c3.15-3,7.21-1.24,7.52,3.14.19,2.6-.24,5.81-1.66,7.88-9.77,14.25-15.12,30.51-21.41,46.31s-11.91,31.93-17.82,47.91c-.42,1.15-.83,2.3-1.24,3.45Z"/>
    <path d="M251.49,326.3c1.67,2.42,3.33,4.85,5,7.26,9.26,13.29,18.71,26.45,27.74,39.9C290,382,295,391,300.49,399.69c2.4,3.82,5.3,7.34,7.57,11.23a26,26,0,0,1,3.35,8.57,5.88,5.88,0,0,1-2.42,4.93c-1.36.73-4.15.29-5.47-.73a13.23,13.23,0,0,1-4.63-6.15c-3.69-12.95-10.36-24.46-16.83-36.06-9.67-17.31-19.63-34.46-29.46-51.68-.59-1-1.09-2.13-1.64-3.19Z"/>
    <path d="M196.19,324.34c-1.25.78-2.48,1.59-3.75,2.32-23,13.23-44.27,29-65.16,45.24-4,3.14-7.32,7.23-11.31,10.44a22.29,22.29,0,0,1-8.65,4.63c-3.87.85-6.46-2.47-4.78-6.09a17.7,17.7,0,0,1,6-6.77c6.11-4.13,12.77-7.46,18.85-11.62a443.57,443.57,0,0,1,65.26-37.22c1.08-.5,2.2-.93,3.3-1.39Z"/>
    <path d="M266.28,168c2-11.32,3.53-22.77,6.19-33.94,4.29-18,9.36-35.86,14-53.78.6-2.3.76-4.71,1.35-7a20.78,20.78,0,0,1,2.05-5.59c1.62-2.68,3.93-5,7.38-3.54,3.28,1.41,3.52,4.61,3.07,7.75a9,9,0,0,1-1,3.21c-9.84,16.82-14.71,35.6-21,53.8-4.43,12.87-7.69,26.14-11.46,39.23Z"/>
    <path d="M328.34,308.4c5.9.67,11.8,1.3,17.69,2,26.13,3.13,51.48,9.83,76.67,17.13a15.53,15.53,0,0,1,7,4.6c3,3.52,1.06,7.75-3.61,8-2.24.12-5-.35-6.75-1.66-7.74-6-16.7-9.26-25.87-11.82-21.25-5.93-42.61-11.46-63.93-17.15-.44-.12-.9-.18-1.36-.27Z"/>
    <path d="M264,291.76c13.52-4.92,27-10,40.58-14.7,12.56-4.31,25.32-8,37.94-12.22,3.79-1.25,7.32-3.31,11.11-4.58a20.37,20.37,0,0,1,8-1.25c1.62.14,4,1.82,4.38,3.24a7,7,0,0,1-1.77,5.56,11.88,11.88,0,0,1-5.92,2.93c-12,2.52-24.14,4.41-36.05,7.27-19,4.56-37.88,9.7-56.8,14.59a6.19,6.19,0,0,1-1.08.09Z"/>
    <path d="M285.5,317.07c17.51,2.33,35.1,4.19,52.51,7.13,14.44,2.45,28.69,6,42.95,9.47a13.87,13.87,0,0,1,6.66,4.45c2.5,2.92,1,6.79-2.79,7.43-2.32.39-5.38.33-7.2-.89C366.07,337,352.8,334,339.73,330.59c-18-4.66-36.17-8.67-54.27-13Z"/>
    <path d="M196.52,311.3c-24.06,5.89-48.15,11.68-72.17,17.75-5.06,1.28-9.81,3.73-14.81,5.33a19.89,19.89,0,0,1-8,1.15A6.05,6.05,0,0,1,97.34,332c-.43-1.51.52-4,1.74-5.23a11.71,11.71,0,0,1,5.92-2.87c11.83-2.06,23.67-4.07,35.56-5.7,17-2.33,34.05-4.34,51.09-6.43a43.05,43.05,0,0,1,5.2,0Z"/>
    <path d="M300.75,299.31a279.48,279.48,0,0,1,69.75-.82c6.35.7,12.77.88,19.12,1.62a20.74,20.74,0,0,1,8.05,2.42,6,6,0,0,1,2.17,5.06c-.29,1.56-2.23,3.44-3.85,4a9.4,9.4,0,0,1-6.51-.21c-9.17-4.68-19.22-5.56-29.08-7.15A362.34,362.34,0,0,0,300.75,299.31Z"/>
    <path d="M213.9,172.54c-5.25-22.71-10.43-45.43-15.78-68.11-1.32-5.6-3.35-11-4.74-16.61a16.85,16.85,0,0,1-.4-7.62,6,6,0,0,1,4-3.67c1.58-.25,3.91.91,5.07,2.2a10.26,10.26,0,0,1,2,5.47c1.47,12.82,2.59,25.68,4.15,38.49,2,16.55,4.34,33.07,6.53,49.6Z"/>
    <path d="M229.13,249.88c-.84-11.18-1.49-21.68-2.44-32.16-1.36-15-2.89-30-4.46-44.95-.27-2.6-1.33-5.12-1.56-7.71-.38-4.2,2.22-7.52,5.55-7.6s6.28,3.26,6.15,7.27q-1.3,41.93-2.74,83.86A7.4,7.4,0,0,1,229.13,249.88Z"/>
    <path d="M233.58,329.81q3,35,6,70.07c.25,2.86.81,5.7,1.28,8.54.18,1.11.6,2.18.78,3.29.56,3.41.27,6.82-3,8.62a6.46,6.46,0,0,1-5.51-.12c-3.07-1.89-3.41-5.08-2.89-8.63a133.85,133.85,0,0,0,1.57-16.81c.37-20.45.49-40.91.72-61.36,0-1.23.16-2.47.25-3.7Z"/>
    <path d="M206.54,290.62c-2.29-1.15-4.55-2.36-6.87-3.44-16.56-7.72-33.07-15.56-49.76-23-4-1.8-8.7-2.17-13.05-3.26-1.92-.48-4-.8-5.65-1.79-2.41-1.45-3.71-3.8-2.64-6.75s3.66-3.93,6.64-3.76a7.75,7.75,0,0,1,2.86.86c22.72,11.18,45,23.2,65.47,38.19,1.09.8,2.2,1.58,3.3,2.37Z"/>
    <path d="M145.42,244.56c-8.71-4.35-17.32-8.94-26.17-13-10.81-5-21.77-9.61-32.76-14.15-3.44-1.42-7.2-2-10.82-3-.6-.16-1.22-.26-1.83-.43-3.15-.89-5.68-2.74-5.76-6.1a6.83,6.83,0,0,1,2.61-4.92c2.73-1.92,5.62-.94,8.39.79a168.92,168.92,0,0,0,15.55,9C112.77,221.52,129.46,232.57,145.42,244.56Z"/>
    <path d="M217.28,328.44c-7,13.17-14.15,26.24-20.84,39.55-5.22,10.39-9.88,21.07-14.71,31.66-1.3,2.85-3.2,5.21-6.35,5a7.22,7.22,0,0,1-5-3.13c-1.61-2.72-.38-5.48,1.47-8,4-5.43,8-10.88,11.78-16.49,11-16.36,21.78-32.81,32.66-49.22Z"/>
    <path d="M202.07,246.64q-11.34-14.19-22.68-28.38c-6.48-8.14-12.87-16.36-19.43-24.44-2-2.51-4.55-4.65-6.83-7a19.54,19.54,0,0,1-2.29-2.47c-2.27-3.3-1.86-7.19.86-9.08a6.39,6.39,0,0,1,9,2.68c9.84,20.55,24.64,38,35.67,57.85,2,3.54,4.19,6.95,6.29,10.42Z"/>
    <path d="M242.43,258.05c.92-8.9,1.71-17.49,2.7-26.06,1.51-13.08,3.2-26.13,4.7-39.21a77.42,77.42,0,0,0,.12-8.27c0-1-.12-2,0-3,.38-3.92,3.27-6.61,6.62-6.23a6.06,6.06,0,0,1,4.89,7.93c-8.2,24.27-11.41,49.75-18.3,74.33C243.1,257.64,242.93,257.69,242.43,258.05Z"/>
    <path d="M242.54,164.45c0-18.95,0-38.66,0-58.37,0-4.89-.24-9.77-.48-14.66-.16-3.27.53-6.38,3.81-7.4a7.7,7.7,0,0,1,6.08,1.11c2.53,1.94,2,4.86,1.27,7.92-1.82,7.53-3.44,15.13-4.51,22.8-2.26,16.15-4.11,32.36-6.13,48.55C242.5,164.74,242.36,165.08,242.54,164.45Z"/>
    <path d="M243.33,295.74q4.69-16.59,9.39-33.17c2.71-9.52,5.51-19,8.18-28.55.44-1.55.38-3.24.69-4.83.54-2.81,2.1-5.34,5-5.37a8.85,8.85,0,0,1,6,2.77c1.93,2.16,1,4.75-.56,7.24a96.65,96.65,0,0,0-6.76,12.5c-6.66,15.28-13.09,30.67-19.62,46-.52,1.22-1.16,2.39-1.74,3.58Z"/>
    <path d="M243.28,333.22c4,9.81,8,19.67,12.13,29.43,2.84,6.65,6.14,13.12,8.91,19.8.6,1.45.5,4.36-.41,5a13.37,13.37,0,0,1-7,2.32c-1.09,0-3-2.05-3.29-3.45-1.83-8.14-3.19-16.39-4.92-24.55-2-9.42-4.22-18.79-6.35-28.19Z"/>
    <path d="M254,307.27c12.82-.8,25.64-1.57,38.46-2.41,4.85-.32,9.69-1.06,14.53-1.08,1.77,0,4.7,1.2,5.07,2.45a11.51,11.51,0,0,1-.67,7.3c-.91,2.09-3.18,1.8-5.57,1.25a173.64,173.64,0,0,0-20.59-3.73c-9.08-1-18.23-1.28-27.36-1.87l-3.68-.23Z"/>
    <path d="M223.79,293.55c-8.12-9.39-16.09-18.93-24.43-28.11-3.24-3.56-7.5-6.18-11-9.55a6.91,6.91,0,0,1-2.06-5A5.6,5.6,0,0,1,192,245.8c1.56,0,3.48,1.55,4.53,2.93,2.34,3.07,4.22,6.48,6.3,9.75l22,34.47Z"/>
  </g>
</svg>
