<svg id="695cf8ee-5af1-4e19-9dc6-a2d15cfe9d8d" data-name="Capa 1" xmlns="http://www.w3.org/2000/svg" viewBox="0 0 508 510.04">
  <title>ICONES_GIS_Mapes_02</title>
  <path d="M357.11,179.45c-16.47.49-29.2,9.58-29.28,25.63-.1,21,0,42.09,0,63.14,0,7.36-2.18,9.61-9.46,9.87-26.78.93-48.58,23-49.5,50-.18,5.48-2.45,8.53-6.65,8.94-4.81.49-8.15-3.16-8.11-8.85.16-29.27,22-56.33,50.83-63,2.52-.58,5.07-1,7.9-1.59.09-1.27.25-2.44.25-3.62q0-71.43,0-142.86c0-11.58-10-19-20.15-15-6,2.34-9.3,7.6-9.31,15q0,44,0,88c0,2,.06,4,0,6-.19,4.75-3,7.84-7.22,7.93-4.34.09-7.45-3.12-7.48-8.1-.08-14.59,0-29.19,0-43.78,0-31.34,0-49.78,0-81.11,0-9.43-6-16.17-14.46-16.29-8.75-.12-15,6.57-15,16.22,0,45,0,77.12,0,122.13a25.85,25.85,0,0,1-.11,4.6c-.68,3.77-3,6-6.85,6.32a7.28,7.28,0,0,1-7.64-6,20,20,0,0,1-.14-3.68q0-45.85,0-91.7c0-9.76-6-16.54-14.66-16.56s-14.81,6.66-14.82,16.41q0,60.37,0,120.75a16.45,16.45,0,0,1-.38,5c-1.19,3.59-3.85,5.52-7.72,5.22s-6.54-3.29-6.61-7.54c-.13-7.83,0-15.67,0-23.5,0-23.81.07-47.62,0-71.43,0-12-11.89-19.23-21.85-13.51-5.43,3.11-7.63,8-7.62,14.24q.1,49.31,0,98.62,0,41.48,0,83c.06,37.65,27.64,66.22,65.31,67.7,5.34.22,8.59,3.2,8.4,7.69-.19,4.31-3.47,7.33-8.54,7-6.86-.47-13.68-1.48-20.93-2.32V439.9c0,2.45.08,4.91,0,7.37-.21,4.68-3.2,7.76-7.4,7.75s-7.26-3.12-7.29-7.82c-.09-13.68-.13-27.35,0-41,0-3.12-.94-4.79-3.67-6.45-26.34-16-40.38-39.5-40.54-70.38-.32-60.52.26-121-.26-181.56-.22-24.89,24.16-38.8,43-28.68a5.1,5.1,0,0,0,1.29.16c-.38-11.62,3.46-21.39,13.37-28s20.15-6.38,31-1.12c0-6.35,0,.75,0-5.06.14-17,13-30.07,29.54-30.1s29.33,13.11,29.44,30.17c0,5.79,0-1.32,0,4.94,6.87-3.1,13.41-4.76,20.49-3.2,14,3.09,23.65,14.56,23.73,28.89.1,18.43,0,36.86,0,55.88,1.36-.83,2.35-1.38,3.28-2,7-5,14.84-4.24,23.41-5.18,10.41-1.13,17.56,5.23,17.56,15.73,0,49.15.08,94.62-.07,143.79a114.42,114.42,0,0,1-1.7,21.51c-4.7,23.95-18.11,41.94-39,54.33-2.59,1.53-3.55,3.09-3.52,6.08.16,13.68.12,27.35,0,41,0,5-3.18,8.18-7.53,8.06-4.2-.1-7-3.17-7.16-8-.1-4.31,0-8.6,0-12.91V408.38c-7.08.83-13.84,1.83-20.64,2.29-2.1.15-5.08-.52-6.24-2a10.84,10.84,0,0,1-2.09-7.39c.4-3.29,3.25-4.92,6.68-5.27,5.18-.53,10.44-.76,15.49-1.89,28.79-6.48,50.72-32.91,50.92-62.32.34-51.3.11-98.92.11-150.23,0-.61-.09-1.21-.18-2.15"/>
</svg>
