<svg id="a0a008b6-3aef-4912-8832-d3cb5845a259" data-name="Capa 1" xmlns="http://www.w3.org/2000/svg" viewBox="0 0 508 510.04">
  <title>ICONES_GIS_Mapes_02</title>
  <g>
    <path d="M336.38,298.51c-11.93-1.05-21.08-6-26.18-16.54a34.33,34.33,0,0,1-3.44-13.9c-.35-21.51-.24-43-.12-64.53a35.66,35.66,0,0,1,36-36q35.24-.18,70.5,0c20.38.07,36,15.36,36.27,35.72.25,21.76.2,43.52,0,65.28a29.43,29.43,0,0,1-25.64,29.25c-3.69.54-4.55,2.17-4.83,5.44-2.38,27.2-4.9,54.4-7.37,81.6-.71,7.78-1.14,15.61-2.17,23.36-1.59,12-9.09,19.78-21,21.21a86.46,86.46,0,0,1-20.45,0c-13.24-1.61-20.78-11-21.85-24.65-1.68-21.28-3.83-42.53-5.76-63.79-1.1-12.12-2.13-24.24-3.2-36.35-.17-2-.47-3.91-.74-6.13"/>
    <path d="M378.05,155.11c-19.52-.07-35.68-16.23-35.63-35.64s16.38-35.68,35.74-35.55a36,36,0,0,1,35.45,35.85c-.1,19.2-16.4,35.41-35.56,35.34"/>
    <path d="M251.24,188.48c-14.36.43-25.45,8.35-25.52,22.34-.09,18.35,0,36.69,0,55,0,6.42-1.9,8.38-8.25,8.6-23.34.81-42.35,20-43.15,43.56-.16,4.77-2.13,7.43-5.8,7.79-4.19.43-7.1-2.76-7.07-7.72.14-25.52,19.16-49.1,44.3-54.89,2.2-.51,4.42-.9,6.88-1.39.08-1.1.22-2.13.22-3.16q0-62.26,0-124.52c0-10.1-8.73-16.52-17.56-13.06-5.2,2-8.11,6.62-8.12,13.07q0,38.36,0,76.73c0,1.74,0,3.48,0,5.22-.16,4.14-2.65,6.83-6.29,6.91s-6.49-2.72-6.52-7.06c-.07-12.72,0-25.44,0-38.16,0-27.31,0-43.39,0-70.7,0-8.22-5.23-14.09-12.61-14.2-7.63-.11-13.09,5.73-13.1,14.14,0,39.23,0,67.22,0,106.45a22.53,22.53,0,0,1-.1,4,6.16,6.16,0,0,1-6,5.51,6.35,6.35,0,0,1-6.66-5.21,17.41,17.41,0,0,1-.12-3.2q0-40,0-79.93c0-8.51-5.23-14.41-12.78-14.44S110,126,110,134.5q0,52.62,0,105.25a14.34,14.34,0,0,1-.33,4.37,6.12,6.12,0,0,1-6.73,4.55c-3.31-.24-5.7-2.87-5.76-6.57-.11-6.83,0-13.66,0-20.49,0-20.76.06-41.51,0-62.26,0-10.42-10.37-16.76-19-11.77-4.73,2.71-6.65,7-6.64,12.41q.09,43,0,86,0,36.15,0,72.3c0,32.82,24.09,57.72,56.92,59,4.65.19,7.49,2.79,7.33,6.7-.16,3.75-3,6.38-7.45,6.09-6-.41-11.92-1.29-18.24-2v27.46c0,2.13.07,4.28,0,6.43-.18,4.08-2.79,6.76-6.45,6.75s-6.33-2.72-6.35-6.82c-.08-11.92-.11-23.84,0-35.75,0-2.72-.82-4.18-3.2-5.62-23-14-35.19-34.43-35.33-61.35-.28-52.76.23-105.51-.23-158.26-.19-21.7,21.06-33.82,37.49-25a4.44,4.44,0,0,0,1.13.14c-.34-10.13,3-18.65,11.66-24.38s17.56-5.56,27-1c0-5.53,0,.65,0-4.41C135.85,91.42,147,80,161.47,80s25.56,11.43,25.66,26.3c0,5,0-1.15,0,4.31,6-2.71,11.69-4.14,17.86-2.79,12.23,2.69,20.61,12.69,20.68,25.18.09,16.06,0,32.13,0,48.71,1.19-.73,2.05-1.2,2.86-1.77,6.13-4.35,12.93-3.7,20.41-4.51,9.07-1,15.3,4.56,15.3,13.71,0,42.84.07,82.47-.06,125.33a99.73,99.73,0,0,1-1.48,18.75c-4.1,20.87-15.79,36.56-34,47.35-2.26,1.33-3.1,2.69-3.07,5.3.14,11.92.11,23.84,0,35.76,0,4.32-2.77,7.13-6.56,7s-6.14-2.76-6.24-6.93c-.09-3.75,0-7.5,0-11.25V388c-6.17.73-12.07,1.59-18,2-1.83.13-4.43-.45-5.44-1.71a9.45,9.45,0,0,1-1.82-6.44c.35-2.87,2.83-4.29,5.82-4.59,4.51-.47,9.1-.66,13.51-1.65C232,370,251.13,346.93,251.3,321.3c.29-44.72.1-86.23.1-130.94,0-.53-.08-1.05-.16-1.87"/>
  </g>
</svg>
