<svg id="7424a744-de85-484b-ade8-37b5ff807fa8" data-name="Capa 1" xmlns="http://www.w3.org/2000/svg" viewBox="0 0 508 510.04">
  <title>ICONES_GIS_Mapes_02</title>
  <g>
    <path d="M410,90h9V383.94c-1.19,3-3.64,4.19-6.58,5q-50,14.6-100,29.38a18.52,18.52,0,0,1-11,0q-48.26-14.29-96.61-28.31a13.94,13.94,0,0,0-7.42,0c-32.59,9.63-65.13,19.44-97.68,29.2-7.29,2.18-10.74-.33-10.74-7.8q0-140.81,0-281.61c0-5.92,1.4-7.85,7-9.5q39.49-11.62,79-23.23c7.67-2.27,15.29-4.72,22.93-7.09h5.8c1,.38,2,.84,3,1.14q48.37,14.49,96.77,28.88a12.69,12.69,0,0,0,6.8,0c23.25-6.83,46.45-13.82,69.64-20.81C390,96.24,400,93.11,410,90Zm-215.2,15.06c-1.51.41-2.54.67-3.56,1-28.6,8.39-57.18,16.84-85.83,25.08-3.16.91-4.1,2.13-4.1,5.42q.16,132.44.09,264.88c0,1,.09,2.07.15,3.41,1.22-.27,2.14-.42,3-.68q43.68-12.78,87.38-25.53c2.36-.68,2.88-1.78,2.87-4q-.08-116.33,0-232.65C194.79,129.8,194.79,117.68,194.79,105.07ZM300.66,405v-4.7q0-96.83,0-193.66c0-23.74-.07-47.48.06-71.22,0-2.9-.81-4.05-3.57-4.85-28.53-8.26-57-16.67-85.52-25-1.28-.38-2.6-.61-4.06-.94V221l.47.11,2.36-5.06,16.77,3.78-1.89,12.18-18-4.1c0,1.93,0,3.72,0,5.51q0,70.41-.08,140.83c0,2.91,1.13,3.77,3.61,4.49,21,6.08,42,12.28,63,18.43C282.58,399.79,291.32,402.32,300.66,405ZM406.59,105.16c-1.44.32-2.27.46-3.07.7-29.22,8.56-58.42,17.17-87.67,25.63-2.54.73-2.66,2.08-2.66,4.18q0,132.75,0,265.5c0,1.16,0,2.32,0,3.63a20.38,20.38,0,0,0,2.21-.36q44.29-13,88.59-25.94c2.29-.67,2.65-1.83,2.64-3.9q-.07-132.75,0-265.5C406.59,107.92,406.59,106.76,406.59,105.16Z"/>
    <path d="M144.26,137.36l6.18,16.83-11.8,5-6.89-18Z"/>
    <path d="M147.93,176.71l10.54-6.22,9.93,15-9.81,7.38Z"/>
    <path d="M194.06,208l-5.65,10.63-16.19-11.93,8.07-9.26Z"/>
    <path d="M299.58,212.39c0,4.13.07,7.55-.06,11,0,.62-.82,1.69-1.33,1.74-5.31.46-10.63.76-16.18,1.11l-1.88-12.57Z"/>
    <path d="M264,230.42l-19.33,1.85-.57-12.35,17.36-2Z"/>
    <path d="M372.68,338.44c4.8,4.72,9.31,9,13.65,13.46,3.56,3.66,2.49,8.73-2,10.42-2.66,1-4.84.06-6.72-1.8-3.59-3.55-7.14-7.13-10.72-10.69-.82-.82-1.68-1.6-2.76-2.63-4.52,4.55-8.88,9-13.27,13.34-1.79,1.79-4.11,3-6.37,1.78-1.78-1-3.8-2.91-4.15-4.72s.76-4.42,2.1-5.9c4.08-4.53,8.58-8.69,13.12-13.2-4.43-4.42-8.81-8.53-12.82-13-1.38-1.52-2.71-4-2.48-5.82s2.13-3.89,3.86-4.94c2.09-1.28,4.54-.69,6.45,1.23,4.46,4.48,9,8.92,13.76,13.69l11.15-11.19c.83-.84,1.63-1.71,2.52-2.49,2.75-2.41,6.24-2.37,8.68.06a5.83,5.83,0,0,1,0,8.63C382.21,329.22,377.63,333.58,372.68,338.44Z"/>
    <path d="M343.39,307.41l-3.05-18.72L353,286.82l2.95,18Z"/>
    <path d="M350.73,268.07l-12.53,1.84-3.75-17.39,11.93-3.82Z"/>
    <path d="M337.43,230.11,328,237.17l-12.17-9.35,4.72-10.73C327.61,219.56,332.94,223.88,337.43,230.11Z"/>
  </g>
</svg>
